<?xml version="1.0" encoding="UTF-8"?>
<!DOCTYPE svg PUBLIC "-//W3C//DTD SVG 1.1//EN" "http://www.w3.org/Graphics/SVG/1.1/DTD/svg11.dtd">
<!-- Creator: CorelDRAW 2020 (64 Bit) -->
<svg xmlns="http://www.w3.org/2000/svg" xml:space="preserve" width="200mm" height="50mm" version="1.1" style="shape-rendering:geometricPrecision; text-rendering:geometricPrecision; image-rendering:optimizeQuality; fill-rule:evenodd; clip-rule:evenodd"
viewBox="0 0 20000 5000"
 xmlns:xlink="http://www.w3.org/1999/xlink"
 xmlns:xodm="http://www.corel.com/coreldraw/odm/2003"
 xmlns:dc="http://purl.org/dc/elements/1.1/"
 xmlns:cc="http://creativecommons.org/ns#"
 xmlns:rdf="http://www.w3.org/1999/02/22-rdf-syntax-ns#"
 xmlns:svg="http://www.w3.org/2000/svg"
 xmlns:sodipodi="http://sodipodi.sourceforge.net/DTD/sodipodi-0.dtd"
 xmlns:inkscape="http://www.inkscape.org/namespaces/inkscape"
 inkscape:version="1.0 (4035a4fb49, 2020-05-01)"
 sodipodi:docname="ultrasecreto.svg">
 <defs>
  <style type="text/css">
   <![CDATA[
    .fil1 {fill:#FCD583;fill-rule:nonzero}
    .fil0 {fill:red;fill-rule:nonzero}
   ]]>
  </style>
   <clipPath id="id0">
    <rect x="719.34" y="299.09" width="4546.38" height="4414.08"/>
   </clipPath>
 </defs>
 <g id="Camada_x0020_1">
  <metadata id="CorelCorpID_0Corel-Layer"/>
  <sodipodi:namedview inkscape:current-layer="svg3" inkscape:window-maximized="1" inkscape:window-y="-8" inkscape:window-x="-8" inkscape:cy="-25.076779" inkscape:cx="195.52613" inkscape:zoom="1.1160822" showgrid="false" id="namedview5" inkscape:window-height="705" inkscape:window-width="1366" inkscape:pageshadow="2" inkscape:pageopacity="0" guidetolerance="10" gridtolerance="10" objecttolerance="10" borderopacity="1" bordercolor="#666666" pagecolor="#ffffff"/>
  <sodipodi:namedview inkscape:current-layer="svg3" inkscape:window-maximized="1" inkscape:window-y="-8" inkscape:window-x="-8" inkscape:cy="-25.076779" inkscape:cx="195.52613" inkscape:zoom="1.1160822" showgrid="false" id="namedview5" inkscape:window-height="705" inkscape:window-width="1366" inkscape:pageshadow="2" inkscape:pageopacity="0" guidetolerance="10" gridtolerance="10" objecttolerance="10" borderopacity="1" bordercolor="#666666" pagecolor="#ffffff"/>
  <g style="clip-path:url(#id0)">
   <image id="Logo" x="719.34" y="299.09" width="4546.38" height="4414.08" xlink:href="ultrasecreto_Images\ultrasecreto_ImgID1.png"/>
  </g>
  <g id="_1835430359264">
   <path class="fil0" d="M5845.93 4316.67l-288.94 -1017.56 -8.58 0c2.64,26.39 5.28,62.34 8.25,107.2 2.64,45.19 5.61,93.67 8.25,146.12 2.31,52.11 3.62,102.25 3.62,150.73l0 613.51 -338.08 0 0 -1412.71 508.28 0 294.55 1003.05 7.92 0 288.94 -1003.05 509.27 0 0 1412.71 -350.95 0 0 -619.44c0,-44.53 0.99,-92.36 2.64,-143.48 1.65,-51.13 3.3,-99.62 5.61,-144.8 2.31,-45.52 4.29,-81.48 6.27,-107.86l-8.58 0 -284.98 1015.58 -363.49 0z"/>
   <path id="1" class="fil0" d="M8465.86 3608.5c0,108.85 -13.19,207.8 -39.25,296.86 -26.06,89.38 -66.96,166.24 -122.37,230.56 -55.41,64.32 -126.33,113.79 -213.41,148.43 -87.08,34.3 -190.98,51.78 -312.03,51.78 -118.74,0 -221.32,-17.48 -307.74,-51.78 -86.75,-34.64 -157.99,-83.78 -214.07,-147.77 -56.07,-64.32 -97.63,-141.18 -124.68,-230.56 -27.04,-89.72 -40.57,-189.33 -40.57,-299.5 0,-147.11 24.08,-274.76 72.9,-383.28 48.48,-108.51 123.69,-192.62 225.61,-252.32 101.92,-59.38 231.88,-89.39 390.53,-89.39 160.96,0 291.91,30.01 392.51,90.05 100.93,60.03 174.82,144.14 221.99,252.98 46.83,109.18 70.58,236.83 70.58,383.94zm-972.37 0c0,84.77 9.89,157.99 29.02,219.34 19.47,61.03 50.14,108.19 92.03,140.85 41.89,32.98 96.64,49.47 164.26,49.47 70.26,0 126,-16.49 167.56,-49.47 41.56,-32.66 71.58,-79.82 89.72,-140.85 18.47,-61.35 27.71,-134.57 27.71,-219.34 0,-127.65 -21.44,-228.58 -63.66,-302.46 -42.55,-74.22 -115.78,-111.16 -219.35,-111.16 -68.94,0 -124.68,16.49 -166.9,50.13 -42.22,33.65 -72.89,81.15 -91.69,143.16 -19.14,61.68 -28.7,135.23 -28.7,220.33z"/>
   <path id="2" class="fil0" d="M10065.92 4316.67l-500.7 0 -515.87 -995.46 -8.58 0c2.97,30.34 5.94,66.96 8.58,109.18 2.64,42.55 4.95,86.08 6.6,130.28 1.97,43.87 2.96,83.78 2.96,119.08l0 636.92 -338.08 0 0 -1412.71 498.72 0 513.89 981.61 5.94 0c-1.98,-30.68 -3.96,-66.63 -5.94,-107.53 -1.98,-40.9 -3.63,-82.46 -5.28,-124.35 -1.65,-41.89 -2.31,-78.83 -2.31,-111.16l0 -638.57 340.07 0 0 1412.71z"/>
   <polygon id="3" class="fil0" points="10994.76,4316.67 10612.8,4316.67 10612.8,3215.99 10267.79,3215.99 10267.79,2903.96 11338.78,2903.96 11338.78,3215.99 10994.76,3215.99 "/>
   <polygon id="4" class="fil0" points="12164.05,4316.67 11782.09,4316.67 11782.09,3215.99 11437.08,3215.99 11437.08,2903.96 12508.07,2903.96 12508.07,3215.99 12164.05,3215.99 "/>
   <polygon id="5" class="fil0" points="13548.72,4316.67 12709.94,4316.67 12709.94,2903.96 13548.72,2903.96 13548.72,3210.38 13091.56,3210.38 13091.56,3432.36 13514.75,3432.36 13514.75,3738.79 13091.56,3738.79 13091.56,4005.63 13548.72,4005.63 "/>
   <polygon id="6" class="fil0" points="14803.11,4316.67 13702.43,4316.67 13702.43,4080.83 14313.96,3212.03 13716.94,3212.03 13716.94,2903.96 14787.61,2903.96 14787.61,3138.81 14175.75,4008.27 14803.11,4008.27 "/>
   <path id="7" class="fil0" d="M16205.93 2903.96l0 850.33c0,118.41 -22.43,221.32 -67.62,308.73 -44.86,87.41 -112.47,154.7 -202.85,201.86 -90.05,47.5 -203.18,71.25 -339.08,71.25 -194.6,0 -343.03,-50.14 -445.61,-150.08 -102.25,-99.61 -153.71,-240.78 -153.71,-423.18l0 -858.91 383.94 0 0 828.89c0,99.94 18.47,172.51 55.74,217.7 37.6,44.85 92.68,67.61 165.25,67.61 52.44,0 94.99,-9.89 127.65,-29.68 32.98,-19.46 57.06,-50.47 71.9,-93.02 15.18,-42.55 22.76,-97.3 22.76,-164.26l0 -827.24 381.63 0z"/>
   <path id="8" class="fil0" d="M17118.27 4316.67l-288.94 -1017.56 -8.58 0c2.64,26.39 5.28,62.34 8.25,107.2 2.64,45.19 5.61,93.67 8.25,146.12 2.31,52.11 3.62,102.25 3.62,150.73l0 613.51 -338.08 0 0 -1412.71 508.28 0 294.55 1003.05 7.92 0 288.94 -1003.05 509.27 0 0 1412.71 -350.95 0 0 -619.44c0,-44.53 0.99,-92.36 2.64,-143.48 1.65,-51.13 3.3,-99.62 5.61,-144.8 2.31,-45.52 4.29,-81.48 6.27,-107.86l-8.58 0 -284.98 1015.58 -363.49 0z"/>
   <path id="9" class="fil0" d="M19283.02 4316.67l-69.6 -264.86 -459.14 0 -71.57 264.86 -419.23 0 460.79 -1418.65 509.27 0 466.73 1418.65 -417.25 0zm-148.76 -577.88l-61.02 -231.88c-6.27,-25.07 -15.83,-61.02 -28.04,-107.86 -12.2,-46.51 -24.4,-94.99 -36.28,-144.8 -11.87,-50.14 -21.11,-91.04 -27.37,-123.36 -5.94,32.32 -14.19,72.23 -24.74,119.4 -10.56,47.5 -21.44,94.34 -32.99,140.51 -11.21,46.51 -21.11,85.1 -29.35,116.11l-60.69 231.88 300.48 0z"/>
   <path class="fil1" d="M9011.5 2511.05l-288.94 -1017.56 -8.58 0c2.64,26.39 5.28,62.34 8.25,107.2 2.64,45.19 5.61,93.67 8.25,146.12 2.31,52.11 3.62,102.25 3.62,150.73l0 613.51 -338.08 0 0 -1412.71 508.28 0 294.55 1003.05 7.92 0 288.94 -1003.05 509.27 0 0 1412.71 -350.95 0 0 -619.44c0,-44.53 0.99,-92.36 2.64,-143.48 1.65,-51.13 3.3,-99.62 5.61,-144.8 2.31,-45.52 4.29,-81.48 6.27,-107.86l-8.58 0 -284.98 1015.58 -363.49 0z"/>
   <path id="1" class="fil1" d="M11148.21 2511.05l-838.78 0 0 -1412.71 838.78 0 0 306.42 -457.16 0 0 221.98 423.19 0 0 306.43 -423.19 0 0 266.84 457.16 0 0 311.04zm51.13 -1834.91l0 20.12c-23.09,18.8 -52.78,41.56 -88.73,68.28 -36.28,26.72 -74.21,54.42 -114.78,83.12 -40.24,28.36 -79.16,55.74 -116.77,81.47 -37.6,25.73 -69.92,47.17 -96.97,63.66l-251.34 0 0 -28.04c22.43,-24.41 49.48,-53.43 81.14,-87.41 31.67,-33.64 63,-68.27 94.67,-103.9 31.66,-35.29 58.05,-67.94 79.16,-97.3l413.62 0z"/>
   <polygon id="2" class="fil1" points="12019,2511.05 11637.04,2511.05 11637.04,1410.37 11292.03,1410.37 11292.03,1098.34 12363.02,1098.34 12363.02,1410.37 12019,1410.37 "/>
   <path id="3" class="fil1" d="M13886.89 1802.88c0,108.85 -13.19,207.8 -39.25,296.86 -26.06,89.38 -66.96,166.24 -122.37,230.56 -55.41,64.32 -126.33,113.79 -213.41,148.43 -87.08,34.3 -190.98,51.78 -312.03,51.78 -118.74,0 -221.32,-17.48 -307.74,-51.78 -86.75,-34.64 -157.99,-83.78 -214.07,-147.77 -56.07,-64.32 -97.63,-141.18 -124.68,-230.56 -27.04,-89.72 -40.57,-189.33 -40.57,-299.5 0,-147.11 24.08,-274.76 72.9,-383.28 48.48,-108.51 123.69,-192.62 225.61,-252.32 101.92,-59.38 231.88,-89.39 390.53,-89.39 160.96,0 291.91,30.01 392.51,90.05 100.93,60.03 174.82,144.14 221.99,252.98 46.83,109.18 70.58,236.83 70.58,383.94zm-972.37 0c0,84.77 9.89,157.99 29.02,219.34 19.47,61.03 50.14,108.19 92.03,140.85 41.89,32.98 96.64,49.47 164.26,49.47 70.26,0 126,-16.49 167.56,-49.47 41.56,-32.66 71.58,-79.82 89.72,-140.85 18.47,-61.35 27.71,-134.57 27.71,-219.34 0,-127.65 -21.44,-228.58 -63.66,-302.46 -42.55,-74.22 -115.78,-111.16 -219.35,-111.16 -68.94,0 -124.68,16.49 -166.9,50.13 -42.22,33.65 -72.89,81.15 -91.69,143.16 -19.14,61.68 -28.7,135.23 -28.7,220.33z"/>
   <path id="4" class="fil1" d="M15341.16 1774.84c0,164.26 -30.67,300.82 -92.02,409.67 -61.03,108.84 -147.11,190.32 -258.27,244.74 -111.16,54.42 -241.77,81.8 -391.85,81.8l-457.16 0 0 -1412.71 488.82 0c152.06,0 281.03,26.06 386.58,78.17 105.55,52.12 186.03,128.64 241.11,228.91 55.08,100.6 82.79,223.63 82.79,369.42zm-396.47 13.53c0,-85.76 -11.21,-157.01 -34.3,-213.08 -22.76,-56.4 -57.06,-98.62 -102.91,-126.66 -45.52,-28.04 -103.24,-42.22 -172.84,-42.22l-111.16 0 0 791.62 85.1 0c115.78,0 200.88,-33.64 254.97,-100.93 54.09,-67.29 81.14,-170.2 81.14,-308.73z"/>
   <path id="5" class="fil1" d="M16916.15 1802.88c0,108.85 -13.19,207.8 -39.25,296.86 -26.06,89.38 -66.96,166.24 -122.37,230.56 -55.41,64.32 -126.33,113.79 -213.41,148.43 -87.08,34.3 -190.98,51.78 -312.03,51.78 -118.74,0 -221.32,-17.48 -307.74,-51.78 -86.75,-34.64 -157.99,-83.78 -214.07,-147.77 -56.07,-64.32 -97.63,-141.18 -124.68,-230.56 -27.04,-89.72 -40.57,-189.33 -40.57,-299.5 0,-147.11 24.08,-274.76 72.9,-383.28 48.48,-108.51 123.69,-192.62 225.61,-252.32 101.92,-59.38 231.88,-89.39 390.53,-89.39 160.96,0 291.91,30.01 392.51,90.05 100.93,60.03 174.82,144.14 221.99,252.98 46.83,109.18 70.58,236.83 70.58,383.94zm-972.37 0c0,84.77 9.89,157.99 29.02,219.34 19.47,61.03 50.14,108.19 92.03,140.85 41.89,32.98 96.64,49.47 164.26,49.47 70.26,0 126,-16.49 167.56,-49.47 41.56,-32.66 71.58,-79.82 89.72,-140.85 18.47,-61.35 27.71,-134.57 27.71,-219.34 0,-127.65 -21.44,-228.58 -63.66,-302.46 -42.55,-74.22 -115.78,-111.16 -219.35,-111.16 -68.94,0 -124.68,16.49 -166.9,50.13 -42.22,33.65 -72.89,81.15 -91.69,143.16 -19.14,61.68 -28.7,135.23 -28.7,220.33z"/>
  </g>
 </g>
</svg>
